<svg width="900" height="1928" viewBox="0 0 900 1928" class="keymap" xmlns="http://www.w3.org/2000/svg" xmlns:xlink="http://www.w3.org/1999/xlink">
<style>/* inherit to force styles through use tags */
svg path {
    fill: inherit;
}

/* font and background color specifications */
svg.keymap {
    font-family: SFMono-Regular,Consolas,Liberation Mono,Menlo,monospace;
    font-size: 14px;
    font-kerning: normal;
    text-rendering: optimizeLegibility;
    fill: #24292e;
}

/* default key styling */
rect.key {
    fill: #f6f8fa;
}

rect.key, rect.combo {
    stroke: #c9cccf;
    stroke-width: 1;
}

/* default key side styling, only used is draw_key_sides is set */
rect.side {
    filter: brightness(90%);
}

/* color accent for combo boxes */
rect.combo, rect.combo-separate {
    fill: #cdf;
}

/* color accent for held keys */
rect.held, rect.combo.held {
    fill: #fdd;
}

/* color accent for ghost (optional) keys */
rect.ghost, rect.combo.ghost {
    stroke-dasharray: 4, 4;
    stroke-width: 2;
}

text {
    text-anchor: middle;
    dominant-baseline: middle;
}

/* styling for layer labels */
text.label {
    font-weight: bold;
    text-anchor: start;
    stroke: white;
    stroke-width: 4;
    paint-order: stroke;
}

/* styling for optional footer */
text.footer {
    text-anchor: end;
    dominant-baseline: auto;
    stroke: white;
    stroke-width: 4;
    paint-order: stroke;
}

/* styling for combo tap, and key non-tap label text */
text.combo, text.hold, text.shifted, text.left, text.right, text.tl, text.tr, text.bl, text.br {
    font-size: 11px;
}

text.hold, text.bl, text.br {
    text-anchor: middle;
    dominant-baseline: auto;
}

text.shifted, text.tl, text.tr {
    text-anchor: middle;
    dominant-baseline: hanging;
}

text.left, text.tl, text.bl {
    text-anchor: start;
}

text.right, text.tr, text.br {
    text-anchor: end;
}

text.layer-activator {
    text-decoration: underline;
}

/* styling for hold/shifted label text in combo box */
text.combo.hold, text.combo.shifted, text.combo.left, text.combo.right {
    font-size: 8px;
}

/* lighter symbol for transparent keys */
text.trans {
    fill: #7b7e81;
}

/* styling for combo dendrons */
path.combo {
    stroke-width: 1;
    stroke: gray;
    fill: none;
}

/* Start Tabler Icons Cleanup */
/* cannot use height/width with glyphs */
.icon-tabler > path {
    fill: inherit;
    stroke: inherit;
    stroke-width: 2;
}
/* hide tabler's default box */
.icon-tabler > path[stroke="none"][fill="none"] {
    visibility: hidden;
}
/* End Tabler Icons Cleanup */
</style>
<g transform="translate(2, 0)" class="layer-BASE">
<text x="0" y="32" class="label" id="BASE">BASE</text>
<g transform="translate(0, 64)">
<g transform="translate(73, 113) rotate(-10.0)" class="key keypos-0">
<rect rx="5" ry="5" x="-26" y="-26" width="52" height="52" class="key"/>
<text x="0" y="0" class="key tap">Q</text>
</g>
<g transform="translate(137, 62) rotate(-4.0)" class="key keypos-1">
<rect rx="5" ry="5" x="-26" y="-26" width="52" height="52" class="key"/>
<text x="0" y="0" class="key tap">W</text>
</g>
<g transform="translate(200, 28)" class="key keypos-2">
<rect rx="5" ry="5" x="-26" y="-26" width="52" height="52" class="key"/>
<text x="0" y="0" class="key tap">E</text>
</g>
<g transform="translate(256, 56)" class="key keypos-3">
<rect rx="5" ry="5" x="-26" y="-26" width="52" height="52" class="key"/>
<text x="0" y="0" class="key tap">R</text>
</g>
<g transform="translate(312, 65)" class="key keypos-4">
<rect rx="5" ry="5" x="-26" y="-26" width="52" height="52" class="key"/>
<text x="0" y="0" class="key tap">T</text>
</g>
<g transform="translate(584, 65)" class="key keypos-5">
<rect rx="5" ry="5" x="-26" y="-26" width="52" height="52" class="key"/>
<text x="0" y="0" class="key tap">Y</text>
</g>
<g transform="translate(640, 56)" class="key keypos-6">
<rect rx="5" ry="5" x="-26" y="-26" width="52" height="52" class="key"/>
<text x="0" y="0" class="key tap">U</text>
</g>
<g transform="translate(696, 28)" class="key keypos-7">
<rect rx="5" ry="5" x="-26" y="-26" width="52" height="52" class="key"/>
<text x="0" y="0" class="key tap">I</text>
</g>
<g transform="translate(760, 62) rotate(4.0)" class="key keypos-8">
<rect rx="5" ry="5" x="-26" y="-26" width="52" height="52" class="key"/>
<text x="0" y="0" class="key tap">O</text>
</g>
<g transform="translate(823, 113) rotate(10.0)" class="key keypos-9">
<rect rx="5" ry="5" x="-26" y="-26" width="52" height="52" class="key"/>
<text x="0" y="0" class="key tap">P</text>
</g>
<g transform="translate(83, 168) rotate(-10.0)" class="key keypos-10">
<rect rx="5" ry="5" x="-26" y="-26" width="52" height="52" class="key"/>
<text x="0" y="0" class="key tap">A</text>
<text x="0" y="24" class="key hold">LCTRL</text>
</g>
<g transform="translate(140, 118) rotate(-4.0)" class="key keypos-11">
<rect rx="5" ry="5" x="-26" y="-26" width="52" height="52" class="key"/>
<text x="0" y="0" class="key tap">S</text>
<text x="0" y="24" class="key hold">LALT</text>
</g>
<g transform="translate(200, 84)" class="key keypos-12">
<rect rx="5" ry="5" x="-26" y="-26" width="52" height="52" class="key"/>
<text x="0" y="0" class="key tap">D</text>
<text x="0" y="24" class="key hold">Cmd</text>
</g>
<g transform="translate(256, 112)" class="key keypos-13">
<rect rx="5" ry="5" x="-26" y="-26" width="52" height="52" class="key"/>
<text x="0" y="0" class="key tap">F</text>
<text x="0" y="24" class="key hold">LSHFT</text>
</g>
<g transform="translate(312, 121)" class="key keypos-14">
<rect rx="5" ry="5" x="-26" y="-26" width="52" height="52" class="key"/>
<text x="0" y="0" class="key tap">G</text>
</g>
<g transform="translate(584, 121)" class="key keypos-15">
<rect rx="5" ry="5" x="-26" y="-26" width="52" height="52" class="key"/>
<text x="0" y="0" class="key tap">H</text>
</g>
<g transform="translate(640, 112)" class="key keypos-16">
<rect rx="5" ry="5" x="-26" y="-26" width="52" height="52" class="key"/>
<text x="0" y="0" class="key tap">J</text>
<text x="0" y="24" class="key hold">RSHFT</text>
</g>
<g transform="translate(696, 84)" class="key keypos-17">
<rect rx="5" ry="5" x="-26" y="-26" width="52" height="52" class="key"/>
<text x="0" y="0" class="key tap">K</text>
<text x="0" y="24" class="key hold">Cmd</text>
</g>
<g transform="translate(757, 118) rotate(4.0)" class="key keypos-18">
<rect rx="5" ry="5" x="-26" y="-26" width="52" height="52" class="key"/>
<text x="0" y="0" class="key tap">L</text>
<text x="0" y="24" class="key hold">RALT</text>
</g>
<g transform="translate(814, 168) rotate(10.0)" class="key keypos-19">
<rect rx="5" ry="5" x="-26" y="-26" width="52" height="52" class="key"/>
<text x="0" y="0" class="key tap">;</text>
<text x="0" y="24" class="key hold">RCTRL</text>
</g>
<g transform="translate(32, 209) rotate(-10.0)" class="key keypos-20">
<rect rx="5" ry="5" x="-26" y="-26" width="52" height="52" class="key"/>
<text x="0" y="0" class="key tap">`</text>
</g>
<g transform="translate(92, 223) rotate(-10.0)" class="key keypos-21">
<rect rx="5" ry="5" x="-26" y="-26" width="52" height="52" class="key"/>
<text x="0" y="0" class="key tap">Z</text>
</g>
<g transform="translate(144, 174) rotate(-4.0)" class="key keypos-22">
<rect rx="5" ry="5" x="-26" y="-26" width="52" height="52" class="key"/>
<text x="0" y="0" class="key tap">X</text>
</g>
<g transform="translate(200, 140)" class="key keypos-23">
<rect rx="5" ry="5" x="-26" y="-26" width="52" height="52" class="key"/>
<text x="0" y="0" class="key tap">C</text>
</g>
<g transform="translate(256, 168)" class="key keypos-24">
<rect rx="5" ry="5" x="-26" y="-26" width="52" height="52" class="key"/>
<text x="0" y="0" class="key tap">V</text>
</g>
<g transform="translate(312, 177)" class="key keypos-25">
<rect rx="5" ry="5" x="-26" y="-26" width="52" height="52" class="key"/>
<text x="0" y="0" class="key tap">B</text>
</g>
<g transform="translate(584, 177)" class="key keypos-26">
<rect rx="5" ry="5" x="-26" y="-26" width="52" height="52" class="key"/>
<text x="0" y="0" class="key tap">N</text>
</g>
<g transform="translate(640, 168)" class="key keypos-27">
<rect rx="5" ry="5" x="-26" y="-26" width="52" height="52" class="key"/>
<text x="0" y="0" class="key tap">M</text>
</g>
<g transform="translate(696, 140)" class="key keypos-28">
<rect rx="5" ry="5" x="-26" y="-26" width="52" height="52" class="key"/>
<text x="0" y="0" class="key tap">,</text>
</g>
<g transform="translate(753, 174) rotate(4.0)" class="key keypos-29">
<rect rx="5" ry="5" x="-26" y="-26" width="52" height="52" class="key"/>
<text x="0" y="0" class="key tap">.</text>
</g>
<g transform="translate(805, 223) rotate(10.0)" class="key keypos-30">
<rect rx="5" ry="5" x="-26" y="-26" width="52" height="52" class="key"/>
<text x="0" y="0" class="key tap">/</text>
</g>
<g transform="translate(864, 209) rotate(10.0)" class="key keypos-31">
<rect rx="5" ry="5" x="-26" y="-26" width="52" height="52" class="key"/>
<text x="0" y="0" class="key tap">&#x27;</text>
</g>
<g transform="translate(241, 236)" class="key keypos-32">
<rect rx="5" ry="5" x="-26" y="-26" width="52" height="52" class="key"/>
<a href="#FN">
<text x="0" y="0" class="key tap layer-activator">FN</text>
</a></g>
<g transform="translate(303, 245) rotate(15.0)" class="key keypos-33">
<rect rx="5" ry="5" x="-26" y="-26" width="52" height="52" class="key"/>
<a href="#NUM">
<text x="0" y="0" class="key tap layer-activator">NUM</text>
</a></g>
<g transform="translate(360, 270) rotate(30.0)" class="key keypos-34">
<rect rx="5" ry="5" x="-26" y="-26" width="52" height="52" class="key"/>
<text x="0" y="0" class="key tap">SPACE</text>
<a href="#VI">
<text x="0" y="24" class="key hold layer-activator">VI</text>
</a></g>
<g transform="translate(536, 270) rotate(-30.0)" class="key keypos-35">
<rect rx="5" ry="5" x="-26" y="-26" width="52" height="52" class="key"/>
<text x="0" y="0" class="key tap">Hyper</text>
</g>
<g transform="translate(594, 245) rotate(-15.0)" class="key keypos-36">
<rect rx="5" ry="5" x="-26" y="-26" width="52" height="52" class="key"/>
<text x="0" y="0" class="key tap">Super</text>
</g>
<g transform="translate(656, 236)" class="key keypos-37">
<rect rx="5" ry="5" x="-26" y="-26" width="52" height="52" class="key"/>
<a href="#MOUSE">
<text x="0" y="0" class="key tap layer-activator">MOUSE</text>
</a></g>
</g>
</g>
<g transform="translate(2, 373)" class="layer-VI">
<text x="0" y="32" class="label" id="VI">VI</text>
<g transform="translate(0, 64)">
<g transform="translate(73, 113) rotate(-10.0)" class="key keypos-0">
<rect rx="5" ry="5" x="-26" y="-26" width="52" height="52" class="key"/>
</g>
<g transform="translate(137, 62) rotate(-4.0)" class="key keypos-1">
<rect rx="5" ry="5" x="-26" y="-26" width="52" height="52" class="key"/>
</g>
<g transform="translate(200, 28)" class="key keypos-2">
<rect rx="5" ry="5" x="-26" y="-26" width="52" height="52" class="key"/>
</g>
<g transform="translate(256, 56)" class="key keypos-3">
<rect rx="5" ry="5" x="-26" y="-26" width="52" height="52" class="key"/>
<text x="0" y="0" class="key tap">
<tspan x="0" dy="-0.53em">Cmd+Sft</tspan><tspan x="0" dy="1.05em">+Z</tspan>
</text>
</g>
<g transform="translate(312, 65)" class="key keypos-4">
<rect rx="5" ry="5" x="-26" y="-26" width="52" height="52" class="key"/>
</g>
<g transform="translate(584, 65)" class="key keypos-5">
<rect rx="5" ry="5" x="-26" y="-26" width="52" height="52" class="key"/>
<text x="0" y="0" class="key tap">Cmd+C</text>
</g>
<g transform="translate(640, 56)" class="key keypos-6">
<rect rx="5" ry="5" x="-26" y="-26" width="52" height="52" class="key"/>
<text x="0" y="0" class="key tap">Cmd+Z</text>
</g>
<g transform="translate(696, 28)" class="key keypos-7">
<rect rx="5" ry="5" x="-26" y="-26" width="52" height="52" class="key"/>
<text x="0" y="0" class="key tap">TAB</text>
</g>
<g transform="translate(760, 62) rotate(4.0)" class="key keypos-8">
<rect rx="5" ry="5" x="-26" y="-26" width="52" height="52" class="key"/>
<text x="0" y="0" class="key tap">Sft+TAB</text>
</g>
<g transform="translate(823, 113) rotate(10.0)" class="key keypos-9">
<rect rx="5" ry="5" x="-26" y="-26" width="52" height="52" class="key"/>
<text x="0" y="0" class="key tap">Cmd+V</text>
</g>
<g transform="translate(83, 168) rotate(-10.0)" class="key keypos-10">
<rect rx="5" ry="5" x="-26" y="-26" width="52" height="52" class="key"/>
<text x="0" y="0" class="key tap">
<tspan x="0" dy="-0.53em">Ctl+</tspan><tspan x="0" dy="1.05em">SPACE</tspan>
</text>
</g>
<g transform="translate(140, 118) rotate(-4.0)" class="key keypos-11">
<rect rx="5" ry="5" x="-26" y="-26" width="52" height="52" class="key"/>
<text x="0" y="0" class="key tap">LALT</text>
</g>
<g transform="translate(200, 84)" class="key keypos-12">
<rect rx="5" ry="5" x="-26" y="-26" width="52" height="52" class="key"/>
<text x="0" y="0" class="key tap">Cmd</text>
</g>
<g transform="translate(256, 112)" class="key keypos-13">
<rect rx="5" ry="5" x="-26" y="-26" width="52" height="52" class="key"/>
<text x="0" y="0" class="key tap">LSHFT</text>
</g>
<g transform="translate(312, 121)" class="key keypos-14">
<rect rx="5" ry="5" x="-26" y="-26" width="52" height="52" class="key"/>
</g>
<g transform="translate(584, 121)" class="key keypos-15">
<rect rx="5" ry="5" x="-26" y="-26" width="52" height="52" class="key"/>
<text x="0" y="0" class="key tap">LEFT</text>
</g>
<g transform="translate(640, 112)" class="key keypos-16">
<rect rx="5" ry="5" x="-26" y="-26" width="52" height="52" class="key"/>
<text x="0" y="0" class="key tap">DOWN</text>
</g>
<g transform="translate(696, 84)" class="key keypos-17">
<rect rx="5" ry="5" x="-26" y="-26" width="52" height="52" class="key"/>
<text x="0" y="0" class="key tap">UP</text>
</g>
<g transform="translate(757, 118) rotate(4.0)" class="key keypos-18">
<rect rx="5" ry="5" x="-26" y="-26" width="52" height="52" class="key"/>
<text x="0" y="0" class="key tap">RIGHT</text>
</g>
<g transform="translate(814, 168) rotate(10.0)" class="key keypos-19">
<rect rx="5" ry="5" x="-26" y="-26" width="52" height="52" class="key"/>
<text x="0" y="0" class="key tap">ESC</text>
</g>
<g transform="translate(32, 209) rotate(-10.0)" class="key keypos-20">
<rect rx="5" ry="5" x="-26" y="-26" width="52" height="52" class="key"/>
</g>
<g transform="translate(92, 223) rotate(-10.0)" class="key keypos-21">
<rect rx="5" ry="5" x="-26" y="-26" width="52" height="52" class="key"/>
</g>
<g transform="translate(144, 174) rotate(-4.0)" class="key keypos-22">
<rect rx="5" ry="5" x="-26" y="-26" width="52" height="52" class="key"/>
</g>
<g transform="translate(200, 140)" class="key keypos-23">
<rect rx="5" ry="5" x="-26" y="-26" width="52" height="52" class="key"/>
</g>
<g transform="translate(256, 168)" class="key keypos-24">
<rect rx="5" ry="5" x="-26" y="-26" width="52" height="52" class="key"/>
</g>
<g transform="translate(312, 177)" class="key keypos-25">
<rect rx="5" ry="5" x="-26" y="-26" width="52" height="52" class="key"/>
</g>
<g transform="translate(584, 177)" class="key keypos-26">
<rect rx="5" ry="5" x="-26" y="-26" width="52" height="52" class="key"/>
</g>
<g transform="translate(640, 168)" class="key keypos-27">
<rect rx="5" ry="5" x="-26" y="-26" width="52" height="52" class="key"/>
<text x="0" y="0" class="key tap">RET</text>
</g>
<g transform="translate(696, 140)" class="key keypos-28">
<rect rx="5" ry="5" x="-26" y="-26" width="52" height="52" class="key"/>
<text x="0" y="0" class="key tap">BSPC</text>
</g>
<g transform="translate(753, 174) rotate(4.0)" class="key keypos-29">
<rect rx="5" ry="5" x="-26" y="-26" width="52" height="52" class="key"/>
</g>
<g transform="translate(805, 223) rotate(10.0)" class="key keypos-30">
<rect rx="5" ry="5" x="-26" y="-26" width="52" height="52" class="key"/>
</g>
<g transform="translate(864, 209) rotate(10.0)" class="key keypos-31">
<rect rx="5" ry="5" x="-26" y="-26" width="52" height="52" class="key"/>
</g>
<g transform="translate(241, 236)" class="key trans keypos-32">
<rect rx="5" ry="5" x="-26" y="-26" width="52" height="52" class="key trans"/>
</g>
<g transform="translate(303, 245) rotate(15.0)" class="key trans keypos-33">
<rect rx="5" ry="5" x="-26" y="-26" width="52" height="52" class="key trans"/>
</g>
<g transform="translate(360, 270) rotate(30.0)" class="key held keypos-34">
<rect rx="5" ry="5" x="-26" y="-26" width="52" height="52" class="key held"/>
</g>
<g transform="translate(536, 270) rotate(-30.0)" class="key trans keypos-35">
<rect rx="5" ry="5" x="-26" y="-26" width="52" height="52" class="key trans"/>
</g>
<g transform="translate(594, 245) rotate(-15.0)" class="key trans keypos-36">
<rect rx="5" ry="5" x="-26" y="-26" width="52" height="52" class="key trans"/>
</g>
<g transform="translate(656, 236)" class="key trans keypos-37">
<rect rx="5" ry="5" x="-26" y="-26" width="52" height="52" class="key trans"/>
</g>
</g>
</g>
<g transform="translate(2, 745)" class="layer-FN">
<text x="0" y="32" class="label" id="FN">FN</text>
<g transform="translate(0, 64)">
<g transform="translate(73, 113) rotate(-10.0)" class="key keypos-0">
<rect rx="5" ry="5" x="-26" y="-26" width="52" height="52" class="key"/>
<text x="0" y="0" class="key tap">BT</text>
<text x="0" y="24" class="key hold">0</text>
</g>
<g transform="translate(137, 62) rotate(-4.0)" class="key keypos-1">
<rect rx="5" ry="5" x="-26" y="-26" width="52" height="52" class="key"/>
<text x="0" y="0" class="key tap">BT</text>
<text x="0" y="24" class="key hold">1</text>
</g>
<g transform="translate(200, 28)" class="key keypos-2">
<rect rx="5" ry="5" x="-26" y="-26" width="52" height="52" class="key"/>
<text x="0" y="0" class="key tap">BT</text>
<text x="0" y="24" class="key hold">2</text>
</g>
<g transform="translate(256, 56)" class="key keypos-3">
<rect rx="5" ry="5" x="-26" y="-26" width="52" height="52" class="key"/>
<text x="0" y="0" class="key tap">BT</text>
<text x="0" y="24" class="key hold">3</text>
</g>
<g transform="translate(312, 65)" class="key keypos-4">
<rect rx="5" ry="5" x="-26" y="-26" width="52" height="52" class="key"/>
<text x="0" y="0" class="key tap">BT</text>
<text x="0" y="24" class="key hold">4</text>
</g>
<g transform="translate(584, 65)" class="key keypos-5">
<rect rx="5" ry="5" x="-26" y="-26" width="52" height="52" class="key"/>
</g>
<g transform="translate(640, 56)" class="key keypos-6">
<rect rx="5" ry="5" x="-26" y="-26" width="52" height="52" class="key"/>
<text x="0" y="0" class="key tap">F1</text>
</g>
<g transform="translate(696, 28)" class="key keypos-7">
<rect rx="5" ry="5" x="-26" y="-26" width="52" height="52" class="key"/>
<text x="0" y="0" class="key tap">F2</text>
</g>
<g transform="translate(760, 62) rotate(4.0)" class="key keypos-8">
<rect rx="5" ry="5" x="-26" y="-26" width="52" height="52" class="key"/>
<text x="0" y="0" class="key tap">F3</text>
</g>
<g transform="translate(823, 113) rotate(10.0)" class="key keypos-9">
<rect rx="5" ry="5" x="-26" y="-26" width="52" height="52" class="key"/>
<text x="0" y="0" class="key tap">F4</text>
</g>
<g transform="translate(83, 168) rotate(-10.0)" class="key keypos-10">
<rect rx="5" ry="5" x="-26" y="-26" width="52" height="52" class="key"/>
</g>
<g transform="translate(140, 118) rotate(-4.0)" class="key keypos-11">
<rect rx="5" ry="5" x="-26" y="-26" width="52" height="52" class="key"/>
<text x="0" y="0" class="key tap">
<tspan x="0" dy="-0.53em">VOL</tspan><tspan x="0" dy="1.05em">UP</tspan>
</text>
</g>
<g transform="translate(200, 84)" class="key keypos-12">
<rect rx="5" ry="5" x="-26" y="-26" width="52" height="52" class="key"/>
<text x="0" y="0" class="key tap">MUTE</text>
</g>
<g transform="translate(256, 112)" class="key keypos-13">
<rect rx="5" ry="5" x="-26" y="-26" width="52" height="52" class="key"/>
<text x="0" y="0" class="key tap">
<tspan x="0" dy="-0.53em">VOL</tspan><tspan x="0" dy="1.05em">DN</tspan>
</text>
</g>
<g transform="translate(312, 121)" class="key keypos-14">
<rect rx="5" ry="5" x="-26" y="-26" width="52" height="52" class="key"/>
<text x="0" y="0" class="key tap">
<tspan x="0" dy="-0.53em">BRI</tspan><tspan x="0" dy="1.05em">UP</tspan>
</text>
</g>
<g transform="translate(584, 121)" class="key keypos-15">
<rect rx="5" ry="5" x="-26" y="-26" width="52" height="52" class="key"/>
</g>
<g transform="translate(640, 112)" class="key keypos-16">
<rect rx="5" ry="5" x="-26" y="-26" width="52" height="52" class="key"/>
<text x="0" y="0" class="key tap">F5</text>
</g>
<g transform="translate(696, 84)" class="key keypos-17">
<rect rx="5" ry="5" x="-26" y="-26" width="52" height="52" class="key"/>
<text x="0" y="0" class="key tap">F6</text>
</g>
<g transform="translate(757, 118) rotate(4.0)" class="key keypos-18">
<rect rx="5" ry="5" x="-26" y="-26" width="52" height="52" class="key"/>
<text x="0" y="0" class="key tap">F7</text>
</g>
<g transform="translate(814, 168) rotate(10.0)" class="key keypos-19">
<rect rx="5" ry="5" x="-26" y="-26" width="52" height="52" class="key"/>
<text x="0" y="0" class="key tap">F8</text>
</g>
<g transform="translate(32, 209) rotate(-10.0)" class="key keypos-20">
<rect rx="5" ry="5" x="-26" y="-26" width="52" height="52" class="key"/>
<text x="0" y="0" class="key tap">
<tspan x="0" dy="-0.53em">BT</tspan><tspan x="0" dy="1.05em">CLR</tspan>
</text>
</g>
<g transform="translate(92, 223) rotate(-10.0)" class="key keypos-21">
<rect rx="5" ry="5" x="-26" y="-26" width="52" height="52" class="key"/>
<text x="0" y="0" class="key tap">PREV</text>
</g>
<g transform="translate(144, 174) rotate(-4.0)" class="key keypos-22">
<rect rx="5" ry="5" x="-26" y="-26" width="52" height="52" class="key"/>
<text x="0" y="0" class="key tap">PP</text>
</g>
<g transform="translate(200, 140)" class="key keypos-23">
<rect rx="5" ry="5" x="-26" y="-26" width="52" height="52" class="key"/>
<text x="0" y="0" class="key tap">NEXT</text>
</g>
<g transform="translate(256, 168)" class="key keypos-24">
<rect rx="5" ry="5" x="-26" y="-26" width="52" height="52" class="key"/>
</g>
<g transform="translate(312, 177)" class="key keypos-25">
<rect rx="5" ry="5" x="-26" y="-26" width="52" height="52" class="key"/>
<text x="0" y="0" class="key tap">
<tspan x="0" dy="-0.53em">BRI</tspan><tspan x="0" dy="1.05em">DN</tspan>
</text>
</g>
<g transform="translate(584, 177)" class="key keypos-26">
<rect rx="5" ry="5" x="-26" y="-26" width="52" height="52" class="key"/>
</g>
<g transform="translate(640, 168)" class="key keypos-27">
<rect rx="5" ry="5" x="-26" y="-26" width="52" height="52" class="key"/>
<text x="0" y="0" class="key tap">F9</text>
</g>
<g transform="translate(696, 140)" class="key keypos-28">
<rect rx="5" ry="5" x="-26" y="-26" width="52" height="52" class="key"/>
<text x="0" y="0" class="key tap">F10</text>
</g>
<g transform="translate(753, 174) rotate(4.0)" class="key keypos-29">
<rect rx="5" ry="5" x="-26" y="-26" width="52" height="52" class="key"/>
<text x="0" y="0" class="key tap">F11</text>
</g>
<g transform="translate(805, 223) rotate(10.0)" class="key keypos-30">
<rect rx="5" ry="5" x="-26" y="-26" width="52" height="52" class="key"/>
<text x="0" y="0" class="key tap">F12</text>
</g>
<g transform="translate(864, 209) rotate(10.0)" class="key keypos-31">
<rect rx="5" ry="5" x="-26" y="-26" width="52" height="52" class="key"/>
<text x="0" y="0" class="key tap">Boot</text>
</g>
<g transform="translate(241, 236)" class="key held keypos-32">
<rect rx="5" ry="5" x="-26" y="-26" width="52" height="52" class="key held"/>
</g>
<g transform="translate(303, 245) rotate(15.0)" class="key trans keypos-33">
<rect rx="5" ry="5" x="-26" y="-26" width="52" height="52" class="key trans"/>
</g>
<g transform="translate(360, 270) rotate(30.0)" class="key trans keypos-34">
<rect rx="5" ry="5" x="-26" y="-26" width="52" height="52" class="key trans"/>
</g>
<g transform="translate(536, 270) rotate(-30.0)" class="key trans keypos-35">
<rect rx="5" ry="5" x="-26" y="-26" width="52" height="52" class="key trans"/>
</g>
<g transform="translate(594, 245) rotate(-15.0)" class="key trans keypos-36">
<rect rx="5" ry="5" x="-26" y="-26" width="52" height="52" class="key trans"/>
</g>
<g transform="translate(656, 236)" class="key trans keypos-37">
<rect rx="5" ry="5" x="-26" y="-26" width="52" height="52" class="key trans"/>
</g>
</g>
</g>
<g transform="translate(2, 1118)" class="layer-NUM">
<text x="0" y="32" class="label" id="NUM">NUM</text>
<g transform="translate(0, 64)">
<g transform="translate(73, 113) rotate(-10.0)" class="key keypos-0">
<rect rx="5" ry="5" x="-26" y="-26" width="52" height="52" class="key"/>
<text x="0" y="0" class="key tap">1</text>
</g>
<g transform="translate(137, 62) rotate(-4.0)" class="key keypos-1">
<rect rx="5" ry="5" x="-26" y="-26" width="52" height="52" class="key"/>
<text x="0" y="0" class="key tap">2</text>
</g>
<g transform="translate(200, 28)" class="key keypos-2">
<rect rx="5" ry="5" x="-26" y="-26" width="52" height="52" class="key"/>
<text x="0" y="0" class="key tap">3</text>
</g>
<g transform="translate(256, 56)" class="key keypos-3">
<rect rx="5" ry="5" x="-26" y="-26" width="52" height="52" class="key"/>
<text x="0" y="0" class="key tap">4</text>
</g>
<g transform="translate(312, 65)" class="key keypos-4">
<rect rx="5" ry="5" x="-26" y="-26" width="52" height="52" class="key"/>
<text x="0" y="0" class="key tap">5</text>
</g>
<g transform="translate(584, 65)" class="key keypos-5">
<rect rx="5" ry="5" x="-26" y="-26" width="52" height="52" class="key"/>
<text x="0" y="0" class="key tap">6</text>
</g>
<g transform="translate(640, 56)" class="key keypos-6">
<rect rx="5" ry="5" x="-26" y="-26" width="52" height="52" class="key"/>
<text x="0" y="0" class="key tap">7</text>
</g>
<g transform="translate(696, 28)" class="key keypos-7">
<rect rx="5" ry="5" x="-26" y="-26" width="52" height="52" class="key"/>
<text x="0" y="0" class="key tap">8</text>
</g>
<g transform="translate(760, 62) rotate(4.0)" class="key keypos-8">
<rect rx="5" ry="5" x="-26" y="-26" width="52" height="52" class="key"/>
<text x="0" y="0" class="key tap">9</text>
</g>
<g transform="translate(823, 113) rotate(10.0)" class="key keypos-9">
<rect rx="5" ry="5" x="-26" y="-26" width="52" height="52" class="key"/>
<text x="0" y="0" class="key tap">0</text>
</g>
<g transform="translate(83, 168) rotate(-10.0)" class="key keypos-10">
<rect rx="5" ry="5" x="-26" y="-26" width="52" height="52" class="key"/>
<text x="0" y="0" class="key tap">LCTRL</text>
</g>
<g transform="translate(140, 118) rotate(-4.0)" class="key keypos-11">
<rect rx="5" ry="5" x="-26" y="-26" width="52" height="52" class="key"/>
<text x="0" y="0" class="key tap">LALT</text>
</g>
<g transform="translate(200, 84)" class="key keypos-12">
<rect rx="5" ry="5" x="-26" y="-26" width="52" height="52" class="key"/>
<text x="0" y="0" class="key tap">Cmd</text>
</g>
<g transform="translate(256, 112)" class="key keypos-13">
<rect rx="5" ry="5" x="-26" y="-26" width="52" height="52" class="key"/>
<text x="0" y="0" class="key tap">LSHFT</text>
</g>
<g transform="translate(312, 121)" class="key keypos-14">
<rect rx="5" ry="5" x="-26" y="-26" width="52" height="52" class="key"/>
</g>
<g transform="translate(584, 121)" class="key keypos-15">
<rect rx="5" ry="5" x="-26" y="-26" width="52" height="52" class="key"/>
</g>
<g transform="translate(640, 112)" class="key keypos-16">
<rect rx="5" ry="5" x="-26" y="-26" width="52" height="52" class="key"/>
<text x="0" y="0" class="key tap">RSHFT</text>
</g>
<g transform="translate(696, 84)" class="key keypos-17">
<rect rx="5" ry="5" x="-26" y="-26" width="52" height="52" class="key"/>
<text x="0" y="0" class="key tap">Cmd</text>
</g>
<g transform="translate(757, 118) rotate(4.0)" class="key keypos-18">
<rect rx="5" ry="5" x="-26" y="-26" width="52" height="52" class="key"/>
<text x="0" y="0" class="key tap">RALT</text>
</g>
<g transform="translate(814, 168) rotate(10.0)" class="key keypos-19">
<rect rx="5" ry="5" x="-26" y="-26" width="52" height="52" class="key"/>
<text x="0" y="0" class="key tap">RCTRL</text>
</g>
<g transform="translate(32, 209) rotate(-10.0)" class="key keypos-20">
<rect rx="5" ry="5" x="-26" y="-26" width="52" height="52" class="key"/>
</g>
<g transform="translate(92, 223) rotate(-10.0)" class="key keypos-21">
<rect rx="5" ry="5" x="-26" y="-26" width="52" height="52" class="key"/>
</g>
<g transform="translate(144, 174) rotate(-4.0)" class="key keypos-22">
<rect rx="5" ry="5" x="-26" y="-26" width="52" height="52" class="key"/>
</g>
<g transform="translate(200, 140)" class="key keypos-23">
<rect rx="5" ry="5" x="-26" y="-26" width="52" height="52" class="key"/>
</g>
<g transform="translate(256, 168)" class="key keypos-24">
<rect rx="5" ry="5" x="-26" y="-26" width="52" height="52" class="key"/>
</g>
<g transform="translate(312, 177)" class="key keypos-25">
<rect rx="5" ry="5" x="-26" y="-26" width="52" height="52" class="key"/>
</g>
<g transform="translate(584, 177)" class="key keypos-26">
<rect rx="5" ry="5" x="-26" y="-26" width="52" height="52" class="key"/>
<text x="0" y="0" class="key tap">-</text>
</g>
<g transform="translate(640, 168)" class="key keypos-27">
<rect rx="5" ry="5" x="-26" y="-26" width="52" height="52" class="key"/>
<text x="0" y="0" class="key tap">=</text>
</g>
<g transform="translate(696, 140)" class="key keypos-28">
<rect rx="5" ry="5" x="-26" y="-26" width="52" height="52" class="key"/>
<text x="0" y="0" class="key tap">[</text>
</g>
<g transform="translate(753, 174) rotate(4.0)" class="key keypos-29">
<rect rx="5" ry="5" x="-26" y="-26" width="52" height="52" class="key"/>
<text x="0" y="0" class="key tap">]</text>
</g>
<g transform="translate(805, 223) rotate(10.0)" class="key keypos-30">
<rect rx="5" ry="5" x="-26" y="-26" width="52" height="52" class="key"/>
<text x="0" y="0" class="key tap">\</text>
</g>
<g transform="translate(864, 209) rotate(10.0)" class="key keypos-31">
<rect rx="5" ry="5" x="-26" y="-26" width="52" height="52" class="key"/>
</g>
<g transform="translate(241, 236)" class="key trans keypos-32">
<rect rx="5" ry="5" x="-26" y="-26" width="52" height="52" class="key trans"/>
</g>
<g transform="translate(303, 245) rotate(15.0)" class="key held keypos-33">
<rect rx="5" ry="5" x="-26" y="-26" width="52" height="52" class="key held"/>
</g>
<g transform="translate(360, 270) rotate(30.0)" class="key trans keypos-34">
<rect rx="5" ry="5" x="-26" y="-26" width="52" height="52" class="key trans"/>
</g>
<g transform="translate(536, 270) rotate(-30.0)" class="key trans keypos-35">
<rect rx="5" ry="5" x="-26" y="-26" width="52" height="52" class="key trans"/>
</g>
<g transform="translate(594, 245) rotate(-15.0)" class="key trans keypos-36">
<rect rx="5" ry="5" x="-26" y="-26" width="52" height="52" class="key trans"/>
</g>
<g transform="translate(656, 236)" class="key trans keypos-37">
<rect rx="5" ry="5" x="-26" y="-26" width="52" height="52" class="key trans"/>
</g>
</g>
</g>
<g transform="translate(2, 1491)" class="layer-MOUSE">
<text x="0" y="32" class="label" id="MOUSE">MOUSE</text>
<g transform="translate(0, 64)">
<g transform="translate(73, 113) rotate(-10.0)" class="key keypos-0">
<rect rx="5" ry="5" x="-26" y="-26" width="52" height="52" class="key"/>
</g>
<g transform="translate(137, 62) rotate(-4.0)" class="key keypos-1">
<rect rx="5" ry="5" x="-26" y="-26" width="52" height="52" class="key"/>
<text x="0" y="0" class="key tap">
<tspan x="0" dy="-0.53em">Scroll</tspan><tspan x="0" dy="1.05em">↑</tspan>
</text>
</g>
<g transform="translate(200, 28)" class="key keypos-2">
<rect rx="5" ry="5" x="-26" y="-26" width="52" height="52" class="key"/>
<text x="0" y="0" class="key tap">
<tspan x="0" dy="-0.53em">Move</tspan><tspan x="0" dy="1.05em">↑</tspan>
</text>
</g>
<g transform="translate(256, 56)" class="key keypos-3">
<rect rx="5" ry="5" x="-26" y="-26" width="52" height="52" class="key"/>
<text x="0" y="0" class="key tap">
<tspan x="0" dy="-0.53em">Scroll</tspan><tspan x="0" dy="1.05em">↓</tspan>
</text>
</g>
<g transform="translate(312, 65)" class="key keypos-4">
<rect rx="5" ry="5" x="-26" y="-26" width="52" height="52" class="key"/>
</g>
<g transform="translate(584, 65)" class="key keypos-5">
<rect rx="5" ry="5" x="-26" y="-26" width="52" height="52" class="key"/>
</g>
<g transform="translate(640, 56)" class="key keypos-6">
<rect rx="5" ry="5" x="-26" y="-26" width="52" height="52" class="key"/>
</g>
<g transform="translate(696, 28)" class="key keypos-7">
<rect rx="5" ry="5" x="-26" y="-26" width="52" height="52" class="key"/>
</g>
<g transform="translate(760, 62) rotate(4.0)" class="key keypos-8">
<rect rx="5" ry="5" x="-26" y="-26" width="52" height="52" class="key"/>
</g>
<g transform="translate(823, 113) rotate(10.0)" class="key keypos-9">
<rect rx="5" ry="5" x="-26" y="-26" width="52" height="52" class="key"/>
</g>
<g transform="translate(83, 168) rotate(-10.0)" class="key keypos-10">
<rect rx="5" ry="5" x="-26" y="-26" width="52" height="52" class="key"/>
</g>
<g transform="translate(140, 118) rotate(-4.0)" class="key keypos-11">
<rect rx="5" ry="5" x="-26" y="-26" width="52" height="52" class="key"/>
<text x="0" y="0" class="key tap">
<tspan x="0" dy="-0.53em">Move</tspan><tspan x="0" dy="1.05em">←</tspan>
</text>
</g>
<g transform="translate(200, 84)" class="key keypos-12">
<rect rx="5" ry="5" x="-26" y="-26" width="52" height="52" class="key"/>
<text x="0" y="0" class="key tap">
<tspan x="0" dy="-0.53em">Move</tspan><tspan x="0" dy="1.05em">↓</tspan>
</text>
</g>
<g transform="translate(256, 112)" class="key keypos-13">
<rect rx="5" ry="5" x="-26" y="-26" width="52" height="52" class="key"/>
<text x="0" y="0" class="key tap">
<tspan x="0" dy="-0.53em">Move</tspan><tspan x="0" dy="1.05em">→</tspan>
</text>
</g>
<g transform="translate(312, 121)" class="key keypos-14">
<rect rx="5" ry="5" x="-26" y="-26" width="52" height="52" class="key"/>
</g>
<g transform="translate(584, 121)" class="key keypos-15">
<rect rx="5" ry="5" x="-26" y="-26" width="52" height="52" class="key"/>
</g>
<g transform="translate(640, 112)" class="key keypos-16">
<rect rx="5" ry="5" x="-26" y="-26" width="52" height="52" class="key"/>
<text x="0" y="0" class="key tap">RSHFT</text>
</g>
<g transform="translate(696, 84)" class="key keypos-17">
<rect rx="5" ry="5" x="-26" y="-26" width="52" height="52" class="key"/>
<text x="0" y="0" class="key tap">Cmd</text>
</g>
<g transform="translate(757, 118) rotate(4.0)" class="key keypos-18">
<rect rx="5" ry="5" x="-26" y="-26" width="52" height="52" class="key"/>
<text x="0" y="0" class="key tap">RALT</text>
</g>
<g transform="translate(814, 168) rotate(10.0)" class="key keypos-19">
<rect rx="5" ry="5" x="-26" y="-26" width="52" height="52" class="key"/>
<text x="0" y="0" class="key tap">RCTRL</text>
</g>
<g transform="translate(32, 209) rotate(-10.0)" class="key keypos-20">
<rect rx="5" ry="5" x="-26" y="-26" width="52" height="52" class="key"/>
</g>
<g transform="translate(92, 223) rotate(-10.0)" class="key keypos-21">
<rect rx="5" ry="5" x="-26" y="-26" width="52" height="52" class="key"/>
</g>
<g transform="translate(144, 174) rotate(-4.0)" class="key keypos-22">
<rect rx="5" ry="5" x="-26" y="-26" width="52" height="52" class="key"/>
<text x="0" y="0" class="key tap">
<tspan x="0" dy="-0.53em">Scroll</tspan><tspan x="0" dy="1.05em">←</tspan>
</text>
</g>
<g transform="translate(200, 140)" class="key keypos-23">
<rect rx="5" ry="5" x="-26" y="-26" width="52" height="52" class="key"/>
</g>
<g transform="translate(256, 168)" class="key keypos-24">
<rect rx="5" ry="5" x="-26" y="-26" width="52" height="52" class="key"/>
<text x="0" y="0" class="key tap">
<tspan x="0" dy="-0.53em">Scroll</tspan><tspan x="0" dy="1.05em">→</tspan>
</text>
</g>
<g transform="translate(312, 177)" class="key keypos-25">
<rect rx="5" ry="5" x="-26" y="-26" width="52" height="52" class="key"/>
</g>
<g transform="translate(584, 177)" class="key keypos-26">
<rect rx="5" ry="5" x="-26" y="-26" width="52" height="52" class="key"/>
</g>
<g transform="translate(640, 168)" class="key keypos-27">
<rect rx="5" ry="5" x="-26" y="-26" width="52" height="52" class="key"/>
</g>
<g transform="translate(696, 140)" class="key keypos-28">
<rect rx="5" ry="5" x="-26" y="-26" width="52" height="52" class="key"/>
</g>
<g transform="translate(753, 174) rotate(4.0)" class="key keypos-29">
<rect rx="5" ry="5" x="-26" y="-26" width="52" height="52" class="key"/>
</g>
<g transform="translate(805, 223) rotate(10.0)" class="key keypos-30">
<rect rx="5" ry="5" x="-26" y="-26" width="52" height="52" class="key"/>
</g>
<g transform="translate(864, 209) rotate(10.0)" class="key keypos-31">
<rect rx="5" ry="5" x="-26" y="-26" width="52" height="52" class="key"/>
</g>
<g transform="translate(241, 236)" class="key keypos-32">
<rect rx="5" ry="5" x="-26" y="-26" width="52" height="52" class="key"/>
<text x="0" y="0" class="key tap"><tspan style="font-size: 78%">PRECISION</tspan></text>
</g>
<g transform="translate(303, 245) rotate(15.0)" class="key keypos-33">
<rect rx="5" ry="5" x="-26" y="-26" width="52" height="52" class="key"/>
<text x="0" y="0" class="key tap">
<tspan x="0" dy="-0.53em">Right</tspan><tspan x="0" dy="1.05em">Click</tspan>
</text>
</g>
<g transform="translate(360, 270) rotate(30.0)" class="key keypos-34">
<rect rx="5" ry="5" x="-26" y="-26" width="52" height="52" class="key"/>
<text x="0" y="0" class="key tap">
<tspan x="0" dy="-0.53em">Left</tspan><tspan x="0" dy="1.05em">Click</tspan>
</text>
</g>
<g transform="translate(536, 270) rotate(-30.0)" class="key keypos-35">
<rect rx="5" ry="5" x="-26" y="-26" width="52" height="52" class="key"/>
</g>
<g transform="translate(594, 245) rotate(-15.0)" class="key keypos-36">
<rect rx="5" ry="5" x="-26" y="-26" width="52" height="52" class="key"/>
</g>
<g transform="translate(656, 236)" class="key held keypos-37">
<rect rx="5" ry="5" x="-26" y="-26" width="52" height="52" class="key held"/>
</g>
</g>
</g>
</svg>
